# xmcd
#
# Track frame offsets: 
#        150
#        17655
#        53558
#        106515
#        151329
#        175204
#        203911
#        222215
#        233675
#        254786
#        277557
#        292908
#        309372
#        336876
#
# Disc length: 4717 seconds
#
# Revision: 0
# Processed by: cddbd v1.5.2PL0 Copyright (c) Steve Scherf et al.
# Submitted via: ExactAudioCopy v0.95b3
#
DISCID=b4126b0e
DTITLE=The Rolling Stones  - Unsurpassed Masters Vol. 6 1977-1979 - Di
DTITLE=sc 1  FLAC
DYEAR=1900
DGENRE=
TTITLE0=Respectable
TTITLE1=Claudine 1
TTITLE2=Miss You
TTITLE3=When The Whip Comes Down
TTITLE4=Do You Get Enough
TTITLE5=Hang Fire 1
TTITLE6=Fiji Jim
TTITLE7=I Can't Help It
TTITLE8=Far Away Eyes
TTITLE9=Everlasting Is My Love
TTITLE10=Shattered
TTITLE11=I Need You
TTITLE12=No Spare Parts
TTITLE13=Petrol Gang
EXTD=
EXTT0=
EXTT1=
EXTT2=
EXTT3=
EXTT4=
EXTT5=
EXTT6=
EXTT7=
EXTT8=
EXTT9=
EXTT10=
EXTT11=
EXTT12=
EXTT13=
PLAYORDER=
